<svg width="14" height="12" viewBox="0 0 14 12" fill="none" xmlns="http://www.w3.org/2000/svg">
<path d="M6.75079 1.55818L6.4373 1.30589C6.31419 1.2068 6.18399 1.11566 6.04652 1.03246L6.04651 1.03245C5.47192 0.684652 4.80991 0.5 4.13017 0.5C3.63984 0.5 3.16709 0.592977 2.72052 0.777034L2.71998 0.777256C2.28818 0.954639 1.89975 1.20934 1.5658 1.53388L1.56512 1.53454L1.56512 1.53454C1.23394 1.85516 0.969604 2.23692 0.786888 2.6581L6.75079 1.55818ZM6.75079 1.55818L7.06427 1.30589M6.75079 1.55818L7.06427 1.30589M7.06427 1.30589C7.18739 1.2068 7.31758 1.11566 7.45505 1.03246L7.45506 1.03245C8.02964 0.684652 8.69166 0.5 9.3714 0.500001L9.37254 0.499999C9.856 0.498895 10.3348 0.593094 10.781 0.777032L10.7817 0.777297C11.2118 0.953892 11.6035 1.21075 11.9356 1.53373L11.936 1.53412C12.267 1.8553 12.5314 2.23721 12.7148 2.65838C12.9048 3.09659 13.0014 3.56016 13 4.03772V4.03915C13 4.48646 12.9079 4.9636 12.7162 5.46103L12.7158 5.46217C12.557 5.87719 12.3218 6.31779 12.0153 6.77182C11.5302 7.48939 10.854 8.25092 9.99954 9.03363C8.57918 10.3337 7.17266 11.232 7.12158 11.2645L7.12148 11.2646L6.7521 11.4996L6.75209 11.4996L6.75172 11.4998L6.75 11.5L6.74829 11.4998L6.74792 11.4996L6.74791 11.4996L6.37853 11.2646L6.37857 11.2645L6.37065 11.2597C6.37166 11.2603 6.36631 11.257 6.35221 11.2479C6.33938 11.2397 6.32138 11.2281 6.29853 11.2132C6.25286 11.1835 6.18837 11.1409 6.1077 11.0864C5.94634 10.9774 5.72085 10.8211 5.45237 10.625C4.91463 10.2322 4.20838 9.68231 3.50067 9.03381L3.50061 9.03376M7.06427 1.30589L3.50061 9.03376M3.50061 9.03376C2.64621 8.25109 1.96995 7.48961 1.48484 6.77206L3.50061 9.03376ZM0.500011 4.03915C0.500011 3.56053 0.596796 3.09641 0.786872 2.65814L0.783683 5.46078C0.592023 4.96344 0.500011 4.48639 0.500011 4.03915ZM1.48468 6.77182C1.17882 6.31876 0.944664 5.87771 0.78378 5.46103L1.48468 6.77182Z" fill="#D85959" stroke="black"/>
</svg>
