<svg width="15" height="14" viewBox="0 0 15 14" fill="none" xmlns="http://www.w3.org/2000/svg">
<path d="M10.8548 0C12.0258 0 13.0094 0.405797 13.8056 1.21739C14.6019 2.02899 15 3.01961 15 4.18926C15 4.76215 14.8829 5.34101 14.6487 5.92583C14.4145 6.51066 14.1569 7.02984 13.8759 7.48338C13.5948 7.93691 13.1206 8.52174 12.4532 9.23785C11.7857 9.95396 11.2237 10.5328 10.767 10.9744C10.3103 11.416 9.57845 12.0904 8.57143 12.9974L7.48244 14L6.39344 13.0332C5.40984 12.1023 4.68384 11.416 4.21546 10.9744C3.74707 10.5328 3.17916 9.95396 2.51171 9.23785C1.84426 8.52174 1.37002 7.93691 1.08899 7.48338C0.807963 7.02984 0.556206 6.51066 0.333724 5.92583C0.111241 5.34101 0 4.76215 0 4.18926C0 3.01961 0.398126 2.02899 1.19438 1.21739C1.99063 0.405797 2.96253 0 4.11007 0C5.46838 0 6.59251 0.537084 7.48244 1.61125C8.37237 0.537084 9.49649 0 10.8548 0ZM7.55269 11.8875C8.70023 10.8372 9.53747 10.0554 10.0644 9.5422C10.5913 9.02899 11.171 8.41432 11.8033 7.69821C12.4356 6.9821 12.8747 6.3555 13.1206 5.81841C13.3665 5.28133 13.4895 4.73828 13.4895 4.18926C13.4895 3.42541 13.2377 2.79284 12.7342 2.29156C12.2307 1.79028 11.6042 1.53964 10.8548 1.53964C10.2927 1.53964 9.75995 1.70673 9.25644 2.04092C8.75293 2.37511 8.39578 2.80477 8.18501 3.32992H6.77986C6.59251 2.80477 6.24707 2.37511 5.74356 2.04092C5.24005 1.70673 4.69555 1.53964 4.11007 1.53964C3.36066 1.53964 2.74005 1.79028 2.24824 2.29156C1.75644 2.79284 1.51054 3.42541 1.51054 4.18926C1.51054 4.73828 1.62763 5.28133 1.86183 5.81841C2.09602 6.3555 2.53513 6.9821 3.17916 7.69821C3.82319 8.41432 4.40867 9.02899 4.9356 9.5422C5.46253 10.0554 6.28806 10.8372 7.41218 11.8875L7.48244 11.9591L7.55269 11.8875Z" fill="#ECECEC"/>
</svg>
