<svg width="16" height="16" viewBox="0 0 16 16" fill="none" xmlns="http://www.w3.org/2000/svg">
<path fill-rule="evenodd" clip-rule="evenodd" d="M7.375 2C5.94946 2 4.58231 2.56629 3.5743 3.5743C2.56629 4.58231 2 5.94946 2 7.375C2 8.80054 2.56629 10.1677 3.5743 11.1757C4.58231 12.1837 5.94946 12.75 7.375 12.75C8.80054 12.75 10.1677 12.1837 11.1757 11.1757C12.1837 10.1677 12.75 8.80054 12.75 7.375C12.75 5.94946 12.1837 4.58231 11.1757 3.5743C10.1677 2.56629 8.80054 2 7.375 2ZM2.16009 2.16009C3.54317 0.777007 5.41903 0 7.375 0C9.33097 0 11.2068 0.777007 12.5899 2.16009C13.973 3.54317 14.75 5.41903 14.75 7.375C14.75 8.99341 14.218 10.557 13.251 11.8319L15.9577 14.5435L14.5423 15.9565L11.8374 13.2468C10.5615 14.2165 8.99573 14.75 7.375 14.75C5.41903 14.75 3.54317 13.973 2.16009 12.5899C0.777007 11.2068 0 9.33097 0 7.375C0 5.41903 0.777007 3.54317 2.16009 2.16009Z" fill="#E4E4E4"/>
</svg>
